<svg width="180" height="50" viewBox="0 0 180 50" fill="none" xmlns="http://www.w3.org/2000/svg">
  <path d="M44.3135 10.4028C44.7637 9.94829 45.4503 9.94 46.0096 10.3823C48.8914 12.6651 50.8348 16.1454 50.9958 20.0513C51.0944 22.4082 50.5042 24.6883 49.409 26.6651C48.3136 28.6423 46.7408 30.2815 44.9007 31.4133C43.0606 32.5452 40.9822 33.1372 38.8687 33.1313C36.755 33.1255 34.6798 32.522 32.8465 31.38C30.8396 30.134 29.217 28.2831 28.1864 26.0751C27.1557 23.8671 26.7699 21.4152 27.0796 19.0004C27.3893 16.5856 28.3796 14.3337 29.9316 12.5195C31.4836 10.7054 33.5267 9.41248 35.8118 8.80163C38.0969 8.19079 40.5147 8.29252 42.7287 9.09303C43.3251 9.30953 43.6846 9.90286 44.3135 10.4028ZM31.6924 25.4999C32.9078 27.5775 35.0083 29.0143 37.4098 29.3999C39.8112 29.7856 42.257 29.078 44.0339 27.4999C43.3366 27.4999 42.7194 27.4805 42.1045 27.4999C41.1672 27.5309 40.6193 27.1393 40.3089 26.2589C39.9985 25.3785 40.2926 24.736 41.0798 24.3178C41.6257 24.0307 42.2379 23.8834 42.7973 23.5832C43.3567 23.2829 43.9684 22.8981 44.1821 22.2803C44.3958 21.6626 44.0527 21.0954 43.4742 20.8619C42.8957 20.6284 42.296 20.751 41.6775 20.9071C41.0591 21.0631 40.4194 21.1687 39.9553 20.7514C39.4912 20.3341 39.2961 19.7318 39.6198 19.175C40.0025 18.5271 40.0025 17.7271 39.6198 17.0795C39.237 16.432 38.5257 16.0179 37.7698 16.0002C36.9777 15.991 36.2458 16.4249 35.8683 17.1255C35.4909 17.8261 35.5361 18.6874 35.9813 19.3399C36.3051 19.8968 36.1099 20.4994 35.6459 20.9167C35.1818 21.334 34.5421 21.2284 33.9236 21.0723C33.305 20.9162 32.7055 20.7937 32.1269 21.0271C31.5484 21.2606 31.2053 21.8277 31.419 22.4455C31.6327 23.0633 32.2444 23.4481 32.8038 23.7483C33.3632 24.0486 33.9751 24.1962 34.5213 24.483C35.3084 24.9009 35.6025 25.5437 35.2921 26.4241C34.9817 27.3046 34.4338 27.6959 33.4966 27.6651C32.8817 27.6457 32.0845 27.665 31.6924 25.4999Z" fill="#FF5A00"/>
  <path d="M17.8667 30.7142C17.8667 28.1001 17.8667 25.486 17.8667 22.8719C17.8667 20.5952 17.8667 18.3186 17.8667 16.0416C17.8667 15.4118 17.8667 14.7819 17.8667 14.1521C17.8667 13.6428 18.1096 13.3073 18.5739 13.2042C19.0381 13.1011 19.4399 13.3096 19.6724 13.7444C19.7705 13.9247 19.8104 14.1304 19.8104 14.3353C19.8104 14.4957 19.8104 14.6561 19.8104 14.8165C19.8104 19.4639 19.8104 24.1112 19.8104 28.7586C19.8104 29.3562 19.8104 29.9541 19.8104 30.552C19.7991 31.0809 19.4985 31.4349 18.9993 31.5014C18.5001 31.5678 18.0647 31.2931 17.9207 30.8092C17.8828 30.6853 17.8669 30.5559 17.8667 30.4259V30.7142Z" fill="#FF5A00"/>
  <path d="M66.96 16.44H72.18C74.94 16.44 76.7 18.36 76.7 21C76.7 23.68 74.94 25.56 72.18 25.56H69.68V32H66.96V16.44ZM72.1 23.08C73.38 23.08 73.96 22.32 73.96 21C73.96 19.72 73.38 18.92 72.1 18.92H69.68V23.08H72.1Z" fill="#222222"/>
  <path d="M79.2613 16.44H82.0613V32H79.2613V16.44Z" fill="#222222"/>
  <path d="M85.1025 24.62C85.1025 20.26 88.1825 17.48 92.0225 17.48C95.8625 17.48 98.9425 20.26 98.9425 24.62C98.9425 28.98 95.8625 31.76 92.0225 31.76C88.1825 31.76 85.1025 28.98 85.1025 24.62ZM96.1425 24.62C96.1425 21.76 94.4825 19.9 92.0225 19.9C89.5625 19.9 87.9025 21.76 87.9025 24.62C87.9025 27.48 89.5625 29.34 92.0225 29.34C94.4825 29.34 96.1425 27.48 96.1425 24.62Z" fill="#222222"/>
  <path d="M109.16 32H106.02L100.98 17.72H104.02L107.62 28.4L111.22 17.72H114.26L109.16 32Z" fill="#222222"/>
  <path d="M118.472 20.18H114.772V17.72H125.012V20.18H121.312V32H118.472V20.18Z" fill="#222222"/>
  <path d="M132.634 32.24C128.354 32.24 125.474 29.42 125.474 24.88C125.474 20.34 128.354 17.48 132.634 17.48C135.714 17.48 138.454 19.08 139.074 22.6H136.134C135.694 20.94 134.414 19.9 132.634 19.9C129.894 19.9 128.274 21.8 128.274 24.88C128.274 27.96 129.894 29.82 132.634 29.82C134.414 29.82 135.694 28.74 136.134 27.16H139.074C138.414 30.58 135.674 32.24 132.634 32.24Z" fill="#222222"/>
  <path d="M147.078 32.24C142.798 32.24 139.918 29.42 139.918 24.88C139.918 20.34 142.798 17.48 147.078 17.48C150.158 17.48 152.898 19.08 153.518 22.6H150.578C150.138 20.94 148.858 19.9 147.078 19.9C144.338 19.9 142.718 21.8 142.718 24.88C142.718 27.96 144.338 29.82 147.078 29.82C148.858 29.82 150.138 28.74 150.578 27.16H153.518C152.858 30.58 150.118 32.24 147.078 32.24Z" fill="#222222"/>
</svg> 